<svg id="SvgjsSvg1045" width="288" height="288" xmlns="http://www.w3.org/2000/svg" version="1.1" xmlns:xlink="http://www.w3.org/1999/xlink" xmlns:svgjs="http://svgjs.com/svgjs"><defs id="SvgjsDefs1046"></defs><g id="SvgjsG1047"><svg xmlns="http://www.w3.org/2000/svg" width="288" height="288" viewBox="0 0 32 32"><g transform="translate(-.198 -.198)" fill="#0071bc" class="color000 svgShape"><rect width="32" height="32" fill="#0071bc" data-name="Rectangle 4461-3" opacity="0" transform="translate(.198 .198)" class="colorf9a825 svgShape"></rect><g data-name="Group 6515" transform="translate(5.413 4.077)" fill="#0071bc" class="color000 svgShape"><path fill="#0071bc" d="M406.662,455.972l1.364,0a.609.609,0,0,1,.628.549.591.591,0,0,1-.545.63.929.929,0,0,1-.1,0H405.6a.884.884,0,0,0,0,1.768h.857v.539a.885.885,0,0,0,1.769,0V458.9a2.354,2.354,0,0,0-.027-4.693l-.006-.012-1.507,0a.591.591,0,0,1-.02-1.177h2.366a.884.884,0,1,0,0-1.768h-.812v-.516a.885.885,0,1,0-1.769,0v.53a2.355,2.355,0,0,0,.214,4.7Z" data-name="Path 8039" transform="translate(-396.503 -439.478)" class="colorf9a825 svgShape"></path><path fill="#0071bc" d="M420.665,458.137v0A16.871,16.871,0,0,0,418,454a19.489,19.489,0,0,0-3.192-2.984l2.453-4.4a.854.854,0,0,0-.156-1.029,3.389,3.389,0,0,0-2.395-1.031,5.464,5.464,0,0,0-2.067.527,3.441,3.441,0,0,1-1.1.325.241.241,0,0,1-.161-.023,9.553,9.553,0,0,0-3.132-.713,4.43,4.43,0,0,0-3.241,1.462.86.86,0,0,0-.107,1.1l2.611,3.825a19.7,19.7,0,0,0-3.128,2.933,17.182,17.182,0,0,0-2.671,4.138,13.7,13.7,0,0,0-1.226,5.645,4.937,4.937,0,0,0,4.987,4.84h11.415a4.932,4.932,0,0,0,4.985-4.84A13.687,13.687,0,0,0,420.665,458.137Zm-11.631-5.986h4.319a17.547,17.547,0,0,1,3.287,3,13.11,13.11,0,0,1,3.428,8.624A3.119,3.119,0,0,1,417,466.857H405.486a3.134,3.134,0,0,1-3.166-3.076,13.131,13.131,0,0,1,3.434-8.634A17.941,17.941,0,0,1,409.034,452.151Zm4.054-1.767h-3.844l-2.4-3.5a2.324,2.324,0,0,1,1.389-.464h0a7.653,7.653,0,0,1,2.509.605,2.5,2.5,0,0,0,.816.131h.008a4.86,4.86,0,0,0,1.8-.476,3.835,3.835,0,0,1,1.351-.38,1.339,1.339,0,0,1,.571.131Z" data-name="Path 8040" transform="translate(-400.487 -444.552)" class="colorf9a825 svgShape"></path></g></g></svg></g></svg>