<svg id="SvgjsSvg1070" width="288" height="288" xmlns="http://www.w3.org/2000/svg" version="1.1" xmlns:xlink="http://www.w3.org/1999/xlink" xmlns:svgjs="http://svgjs.com/svgjs"><defs id="SvgjsDefs1071"></defs><g id="SvgjsG1072"><svg xmlns="http://www.w3.org/2000/svg" width="288" height="288" viewBox="0 0 32 32"><g transform="translate(-.12 -.12)" fill="#0071bc" class="color000 svgShape"><rect width="32" height="32" fill="#0071bc" data-name="Rectangle 4461-3" opacity="0" transform="translate(.12 .12)" class="colorf9a825 svgShape"></rect><g transform="translate(4.12 -18.153)" fill="#0071bc" class="color000 svgShape"><g data-name="Group 17712" fill="#0071bc" class="color000 svgShape"><g data-name="Group 17711" transform="translate(3.909 25.697)" fill="#0071bc" class="color000 svgShape"><path fill="#0071bc" d="M103.219,75.261a.909.909,0,0,0-1.286,0l-6.9,6.875-1.995-1.995a.909.909,0,0,0-1.285,0L83.66,88.229a.909.909,0,1,0,1.285,1.285l7.448-7.448,1.994,1.993a.909.909,0,0,0,1.284,0l7.545-7.515A.909.909,0,0,0,103.219,75.261Z" data-name="Path 8625" transform="translate(-83.393 -74.993)" class="colorf9a825 svgShape"></path></g></g><g data-name="Group 17714" fill="#0071bc" class="color000 svgShape"><g data-name="Group 17713" transform="translate(0 23.273)" fill="#0071bc" class="color000 svgShape"><path fill="#0071bc" d="M23.061,43.273H1.818V24.182a.909.909,0,0,0-1.818,0v20a.909.909,0,0,0,.909.909H23.061a.909.909,0,0,0,0-1.818Z" data-name="Path 8626" transform="translate(0 -23.273)" class="colorf9a825 svgShape"></path></g></g><g data-name="Group 17716" fill="#0071bc" class="color000 svgShape"><g data-name="Group 17715" transform="translate(15.364 25.667)" fill="#0071bc" class="color000 svgShape"><path fill="#0071bc" d="M335.485,74.344h-6.818a.909.909,0,0,0,0,1.818h5.909v5.909a.909.909,0,1,0,1.818,0V75.253A.909.909,0,0,0,335.485,74.344Z" data-name="Path 8627" transform="translate(-327.758 -74.344)" class="colorf9a825 svgShape"></path></g></g></g></g></svg></g></svg>