<svg id="SvgjsSvg1086" width="288" height="288" xmlns="http://www.w3.org/2000/svg" version="1.1" xmlns:xlink="http://www.w3.org/1999/xlink" xmlns:svgjs="http://svgjs.com/svgjs"><defs id="SvgjsDefs1087"></defs><g id="SvgjsG1088"><svg xmlns="http://www.w3.org/2000/svg" width="288" height="288" viewBox="0 0 32 32"><g fill="#0071bc" class="color000 svgShape"><rect width="32" height="32" fill="#0071bc" data-name="Rectangle 4461-3" opacity="0" class="colorf9a825 svgShape"></rect><g data-name="Group 17770" transform="translate(3.999 4)" fill="#0071bc" class="color000 svgShape"><path fill="#0071bc" d="M61.473,51.743a6.216,6.216,0,0,0-6.209,6.209,6.131,6.131,0,0,0,1.328,3.828c.171.218.352.427.542.648l.01.012a6.052,6.052,0,0,1,1.412,2.2,3.852,3.852,0,0,1,.055.83v.474a.786.786,0,0,0,.786.786h4.116a.786.786,0,0,0,.786-.786v-.48a3.347,3.347,0,0,1,.054-.768,6.778,6.778,0,0,1,1.49-2.306l.026-.03c.172-.2.334-.392.482-.58a6.131,6.131,0,0,0,1.33-3.83A6.216,6.216,0,0,0,61.473,51.743Zm3.644,9.067c-.129.165-.282.344-.444.534l-.032.037a7.907,7.907,0,0,0-1.8,2.9,3.538,3.538,0,0,0-.108.88H60.183a3.731,3.731,0,0,0-.109-.93,7.452,7.452,0,0,0-1.739-2.816l-.011-.012c-.179-.207-.347-.4-.5-.594a4.575,4.575,0,0,1-.992-2.856,4.637,4.637,0,1,1,9.273,0A4.574,4.574,0,0,1,65.117,60.81Z" data-name="Path 8143" transform="translate(-49.841 -46.321)" class="colorf9a825 svgShape"></path><path fill="#0071bc" d="M92.114,196.91H88a.786.786,0,1,0,0,1.572h4.116a.786.786,0,1,0,0-1.572Z" data-name="Path 8144" transform="translate(-78.441 -176.275)" class="colorf9a825 svgShape"></path><path fill="#0071bc" d="M99.875,214.018H97.817a.786.786,0,0,0,0,1.572h2.058a.786.786,0,1,0,0-1.572Z" data-name="Path 8145" transform="translate(-87.231 -191.59)" class="colorf9a825 svgShape"></path><path fill="#0071bc" d="M188.124,103.491h-2.711a.786.786,0,1,0,0,1.572h2.711a.786.786,0,1,0,0-1.572Z" data-name="Path 8146" transform="translate(-165.647 -92.646)" class="colorf9a825 svgShape"></path><path fill="#0071bc" d="M7.8,104.277a.786.786,0,0,0-.786-.786H4.3a.786.786,0,0,0,0,1.572H7.016A.786.786,0,0,0,7.8,104.277Z" data-name="Path 8147" transform="translate(-3.518 -92.646)" class="colorf9a825 svgShape"></path><path fill="#0071bc" d="M107.8,4.284a.786.786,0,0,0,.786-.786V.786a.786.786,0,0,0-1.572,0V3.5A.786.786,0,0,0,107.8,4.284Z" data-name="Path 8148" transform="translate(-96.164)" class="colorf9a825 svgShape"></path><path fill="#0071bc" d="M163.231,158.6a.786.786,0,1,0-1.112,1.111l1.917,1.918a.786.786,0,0,0,1.112-1.111Z" data-name="Path 8149" transform="translate(-145.292 -141.775)" class="colorf9a825 svgShape"></path><path fill="#0071bc" d="M35.979,33.569a.786.786,0,0,0,1.112-1.111l-1.917-1.917a.786.786,0,1,0-1.112,1.111Z" data-name="Path 8150" transform="translate(-30.655 -27.134)" class="colorf9a825 svgShape"></path><path fill="#0071bc" d="M35.979,158.6l-1.917,1.918a.786.786,0,0,0,1.112,1.111l1.917-1.918a.786.786,0,0,0-1.112-1.111Z" data-name="Path 8151" transform="translate(-30.655 -141.776)" class="colorf9a825 svgShape"></path><path fill="#0071bc" d="M162.68,33.8a.784.784,0,0,0,.556-.23l1.917-1.917a.786.786,0,0,0-1.112-1.111l-1.917,1.917a.786.786,0,0,0,.556,1.342Z" data-name="Path 8152" transform="translate(-145.296 -27.134)" class="colorf9a825 svgShape"></path></g></g></svg></g></svg>