<svg version="1.2" baseProfile="tiny-ps" xmlns="http://www.w3.org/2000/svg" viewBox="0 0 960 272" width="960" height="272">
	<title>logo-svg</title>
	<style>
		tspan { white-space:pre }
		.shp0 { fill: #0071bc } 
		.shp1 { fill: #009245 } 
	</style>
	<path id="Layer" fill-rule="evenodd" class="shp0" d="M86.45 209.83C85.7 209.98 84.93 209.96 84.19 209.77C83.45 209.58 82.76 209.23 82.17 208.74C81.58 208.25 81.11 207.64 80.8 206.94C80.48 206.25 80.32 205.49 80.33 204.73C75.7 203.73 74.28 201.11 76.16 197L74.27 195.55L73.53 196.7C73.45 196.85 73.35 196.98 73.22 197.08C73.09 197.19 72.94 197.26 72.78 197.3C72.62 197.35 72.45 197.35 72.29 197.32C72.12 197.3 71.97 197.23 71.83 197.14C69.55 195.89 67.3 194.61 65.04 193.34C64.9 193.26 64.78 193.16 64.68 193.04C64.58 192.92 64.5 192.78 64.45 192.63C64.39 192.48 64.37 192.33 64.37 192.17C64.38 192.01 64.41 191.86 64.47 191.71C65.91 185.49 67.34 179.27 68.76 173.04C69.63 169.23 70.51 165.43 71.39 161.62C71.7 160.27 72.53 159.97 73.63 160.81C78.21 164.35 82.79 167.91 87.38 171.44C87.54 171.55 87.69 171.68 87.8 171.84C87.92 172 88 172.17 88.05 172.36C88.11 172.55 88.12 172.75 88.1 172.94C88.08 173.14 88.02 173.33 87.93 173.5C90.84 173.28 93.65 173.11 96.46 172.85C98.46 172.66 100.46 172.38 102.4 172.08C102.72 172.05 103.04 172.03 103.36 172.04C103.68 172.04 104 172.07 104.32 172.11C104.63 172.16 104.95 172.22 105.26 172.3C105.57 172.38 105.87 172.48 106.17 172.6C106.26 172.63 106.35 172.65 106.44 172.67C106.54 172.68 106.63 172.68 106.72 172.68C106.82 172.68 106.91 172.66 107 172.64C107.1 172.62 107.18 172.59 107.27 172.55C107.75 172.23 108.27 171.98 108.82 171.79C109.37 171.6 109.94 171.48 110.51 171.44C111.09 171.39 111.67 171.42 112.24 171.52C112.81 171.61 113.36 171.78 113.89 172.02C115.32 172.59 116.83 172.93 118.27 173.47C118.9 173.72 119.56 173.9 120.23 174C120.9 174.1 121.58 174.12 122.25 174.07C122.93 174.02 123.6 173.9 124.24 173.69C124.89 173.49 125.51 173.22 126.1 172.88C125.68 171.88 126.33 171.33 127.1 170.76C131.53 167.35 135.95 163.91 140.37 160.49C141.64 159.49 142.43 159.78 142.79 161.35C145.08 171.35 147.37 181.33 149.66 191.28C149.72 191.45 149.75 191.62 149.74 191.8C149.74 191.98 149.7 192.15 149.63 192.32C149.55 192.48 149.45 192.63 149.33 192.75C149.2 192.88 149.05 192.98 148.89 193.05C146.77 194.22 144.67 195.42 142.55 196.6C141.55 197.15 141.08 197.02 140.48 196.08L138.91 193.55C137.27 195.2 135.69 196.77 134.13 198.36C134.1 198.4 134.07 198.45 134.04 198.5C134.02 198.55 134 198.6 133.98 198.65C133.96 198.7 133.95 198.75 133.94 198.81C133.93 198.86 133.93 198.92 133.93 198.97C133.77 201.97 132.31 203.59 129.38 204.03C129.35 204.04 129.33 204.04 129.3 204.05C129.27 204.05 129.24 204.06 129.22 204.07C129.19 204.08 129.16 204.08 129.14 204.09C129.11 204.1 129.09 204.11 129.06 204.12C129.1 204.49 129.09 204.87 129.04 205.24C128.99 205.61 128.9 205.98 128.77 206.33C128.64 206.68 128.47 207.01 128.26 207.33C128.06 207.64 127.82 207.93 127.55 208.19C127.28 208.45 126.98 208.67 126.67 208.86C126.35 209.05 126.01 209.2 125.66 209.31C125.3 209.43 124.94 209.5 124.57 209.53C124.2 209.56 123.83 209.55 123.46 209.5C123.15 213.08 120.27 215.1 116.64 213.92C116.64 214.05 116.55 214.17 116.52 214.3C116.39 215.04 116.09 215.74 115.63 216.34C115.18 216.94 114.58 217.42 113.9 217.74C113.22 218.06 112.47 218.21 111.72 218.18C110.96 218.14 110.23 217.93 109.58 217.55C107.87 216.63 106.2 215.64 104.58 214.65C104.5 214.58 104.4 214.52 104.29 214.49C104.19 214.45 104.08 214.44 103.97 214.45C103.86 214.46 103.75 214.49 103.65 214.55C103.55 214.6 103.47 214.67 103.4 214.76C103.26 214.89 103.12 215.03 102.98 215.16C102.84 215.29 102.69 215.42 102.55 215.55C102.4 215.67 102.26 215.8 102.11 215.92C101.96 216.05 101.81 216.17 101.66 216.29C101.06 216.82 100.33 217.19 99.55 217.37C98.76 217.55 97.95 217.52 97.17 217.3C96.4 217.07 95.7 216.66 95.13 216.09C94.57 215.52 94.15 214.81 93.93 214.04C93.93 213.93 93.87 213.82 93.8 213.62C93.09 214.02 92.29 214.24 91.48 214.26C90.66 214.27 89.85 214.08 89.13 213.7C88.41 213.33 87.79 212.78 87.33 212.1C86.88 211.42 86.6 210.64 86.52 209.83L86.45 209.83ZM103.53 174.55L103.47 174.4C103.44 174.4 103.41 174.4 103.38 174.39C103.34 174.39 103.31 174.39 103.28 174.39C103.25 174.39 103.22 174.39 103.18 174.39C103.15 174.4 103.12 174.4 103.09 174.4C101.76 174.61 100.42 174.79 99.09 174.95C97.75 175.11 96.41 175.25 95.07 175.37C93.73 175.49 92.38 175.58 91.04 175.66C89.69 175.73 88.35 175.78 87 175.81C86.89 175.81 86.79 175.83 86.68 175.87C86.58 175.9 86.49 175.95 86.4 176.01C86.31 176.08 86.23 176.15 86.16 176.23C86.1 176.32 86.04 176.41 86 176.51C82.67 181.96 79.33 187.41 76 192.84C75.87 193.06 75.76 193.28 75.62 193.52C76.25 194 76.88 194.41 77.42 194.91C77.96 195.41 78.22 195.25 78.63 194.84C79.04 194.43 79.77 193.84 80.29 193.35C80.88 192.67 81.64 192.16 82.5 191.89C83.36 191.61 84.28 191.58 85.15 191.8C86.03 192.01 86.83 192.47 87.46 193.11C88.09 193.75 88.54 194.55 88.74 195.43C88.94 196.31 88.74 195.43 88.8 195.48C90.04 196 91.24 196.59 92.4 197.26C93.56 197.93 94.68 198.67 95.75 199.48C96.82 200.29 97.83 201.16 98.79 202.1C99.75 203.03 100.65 204.03 101.48 205.08C105.28 205.24 107.69 208.77 105.77 212.59C107.39 213.53 109.01 214.49 110.65 215.4C110.91 215.57 111.21 215.69 111.52 215.75C111.83 215.81 112.15 215.8 112.45 215.74C112.76 215.67 113.05 215.54 113.31 215.35C113.57 215.17 113.79 214.94 113.95 214.67C114.12 214.4 114.23 214.1 114.27 213.79C114.32 213.48 114.3 213.16 114.22 212.86C114.14 212.55 113.99 212.27 113.8 212.02C113.6 211.77 113.36 211.57 113.08 211.42L108.02 207.91C106.9 207.13 105.77 206.36 104.67 205.54C104.52 205.46 104.4 205.35 104.3 205.22C104.2 205.09 104.13 204.94 104.09 204.78C104.06 204.61 104.06 204.45 104.09 204.28C104.13 204.12 104.2 203.97 104.3 203.84C104.4 203.71 104.52 203.6 104.67 203.52C104.81 203.44 104.97 203.39 105.13 203.37C105.29 203.35 105.46 203.36 105.62 203.4C105.77 203.45 105.92 203.53 106.05 203.63C106.09 203.65 106.12 203.67 106.16 203.69C106.2 203.72 106.23 203.74 106.27 203.76C106.3 203.78 106.34 203.81 106.38 203.83C106.41 203.85 106.45 203.88 106.48 203.9L114.85 209.7C115.74 210.31 116.61 210.96 117.52 211.54C117.7 211.66 117.89 211.75 118.1 211.82C118.31 211.88 118.52 211.91 118.73 211.91C118.95 211.91 119.16 211.88 119.37 211.82C119.58 211.75 119.77 211.66 119.95 211.54C120.13 211.44 120.29 211.31 120.44 211.16C120.58 211.01 120.71 210.84 120.8 210.65C120.9 210.47 120.97 210.27 121.01 210.07C121.05 209.87 121.07 209.66 121.05 209.45C121.04 209.25 121 209.05 120.94 208.87C120.88 208.68 120.79 208.5 120.68 208.33C120.58 208.16 120.45 208 120.31 207.87C120.16 207.73 120 207.61 119.83 207.51C116.24 204.97 112.66 202.42 109.09 199.87C108.74 199.62 108.3 199.26 108.23 198.87C108.16 198.48 108.38 197.76 108.66 197.65C108.78 197.6 108.91 197.57 109.05 197.55C109.18 197.52 109.31 197.52 109.44 197.53C109.58 197.53 109.71 197.56 109.84 197.59C109.97 197.63 110.09 197.68 110.21 197.74C112.83 199.51 115.39 201.37 117.97 203.2C119.57 204.34 121.16 205.51 122.78 206.63C123.01 206.79 123.27 206.92 123.55 206.99C123.83 207.07 124.11 207.09 124.4 207.07C124.68 207.05 124.96 206.97 125.22 206.85C125.48 206.73 125.72 206.57 125.92 206.37C126.12 206.18 126.29 205.96 126.42 205.72C126.54 205.48 126.63 205.22 126.66 204.94C126.7 204.67 126.69 204.4 126.63 204.13C126.58 203.86 126.47 203.6 126.33 203.37C126.26 203.27 126.18 203.17 126.09 203.07C126.01 202.97 125.92 202.88 125.83 202.79C125.74 202.7 125.65 202.62 125.55 202.54C125.45 202.46 125.35 202.38 125.24 202.31C120.93 199.17 116.6 196.06 112.24 192.93C111.42 192.33 111.24 191.68 111.69 191.06C112.14 190.44 112.78 190.43 113.69 191.06C114.6 191.69 115.28 192.17 116.07 192.74L127.65 201.1C127.98 201.38 128.39 201.57 128.82 201.65C129.26 201.72 129.7 201.67 130.11 201.52C130.52 201.36 130.88 201.09 131.15 200.74C131.42 200.4 131.59 199.99 131.65 199.55C131.68 199.31 131.67 199.06 131.63 198.83C131.59 198.59 131.52 198.35 131.41 198.13C131.31 197.91 131.17 197.71 131.02 197.53C130.86 197.34 130.67 197.18 130.47 197.05C124.77 192.43 119.09 187.79 113.42 183.14C112.51 182.38 111.74 182 110.71 182.79C110.64 182.83 110.58 182.87 110.51 182.91C110.44 182.94 110.37 182.98 110.29 183.01C110.22 183.04 110.15 183.07 110.07 183.09C110 183.12 109.93 183.14 109.85 183.16C105.78 184.69 101.78 184.84 97.85 182.65C97.36 182.42 96.95 182.06 96.66 181.6C96.37 181.14 96.23 180.61 96.24 180.07C96.25 179.53 96.42 179.01 96.73 178.56C97.03 178.12 97.46 177.77 97.96 177.57C99.38 176.84 100.78 176.08 102.19 175.33L103.53 174.55ZM127.47 174.96C127.14 175.09 126.9 175.17 126.68 175.28C125.95 175.64 125.18 175.92 124.39 176.11C123.61 176.31 122.8 176.43 121.99 176.46C121.17 176.48 120.36 176.43 119.56 176.29C118.76 176.15 117.97 175.92 117.22 175.62C116.8 175.46 116.38 175.3 115.96 175.15C115.53 175 115.11 174.86 114.68 174.72C114.25 174.59 113.82 174.46 113.39 174.34C112.96 174.21 112.53 174.1 112.09 173.99C111.88 173.93 111.67 173.89 111.45 173.87C111.24 173.85 111.02 173.84 110.8 173.86C110.59 173.87 110.37 173.9 110.16 173.94C109.95 173.99 109.74 174.05 109.54 174.13C105.97 175.9 102.47 177.82 98.94 179.68C98.3 180.02 98.38 180.39 98.94 180.62C99.22 180.75 99.51 180.87 99.8 180.99C100.09 181.1 100.38 181.21 100.68 181.31C100.97 181.41 101.27 181.51 101.57 181.59C101.87 181.68 102.17 181.76 102.47 181.83C105.57 182.36 108.39 181.37 111.06 179.89C111.22 179.78 111.4 179.69 111.59 179.64C111.79 179.59 111.98 179.58 112.18 179.59C112.38 179.61 112.57 179.66 112.75 179.75C112.93 179.83 113.09 179.95 113.23 180.09C115.23 181.78 117.29 183.42 119.32 185.09L132.81 196.09L137.51 191.36L127.47 174.96ZM73.39 163.62C73.29 163.99 73.2 164.25 73.14 164.52L71.7 170.85C70.16 177.57 68.62 184.29 67.09 191.02C67.08 191.09 67.07 191.17 67.07 191.24C67.07 191.31 67.08 191.39 67.1 191.46C67.11 191.53 67.14 191.6 67.17 191.66C67.2 191.73 67.24 191.79 67.29 191.85C68.85 192.79 70.44 193.65 72.07 194.57C76.52 187.32 80.93 180.14 85.38 172.91L73.39 163.62ZM128.73 172.48L142.05 194.14C143.61 193.27 145.05 192.41 146.59 191.61C147.09 191.34 147.16 191.07 147.03 190.53C145.26 182.89 143.53 175.26 141.78 167.62C141.45 166.17 141.1 164.73 140.78 163.18L128.73 172.48ZM85.75 207.5C85.89 207.44 86.02 207.37 86.15 207.31C86.28 207.24 86.41 207.17 86.53 207.09C86.66 207.02 86.78 206.94 86.9 206.86C88.9 205.12 90.9 203.34 92.9 201.55C93.15 201.35 93.36 201.1 93.52 200.81C93.67 200.53 93.76 200.22 93.78 199.89C93.8 199.57 93.76 199.25 93.65 198.94C93.54 198.64 93.36 198.36 93.14 198.13C92.94 197.87 92.69 197.65 92.4 197.49C92.11 197.33 91.79 197.24 91.46 197.21C91.13 197.18 90.8 197.22 90.49 197.33C90.18 197.44 89.89 197.61 89.65 197.83C87.57 199.61 85.53 201.43 83.5 203.26C83.31 203.42 83.16 203.6 83.03 203.81C82.91 204.02 82.82 204.25 82.76 204.49C82.71 204.72 82.7 204.97 82.72 205.21C82.75 205.45 82.82 205.69 82.92 205.91C83.03 206.15 83.17 206.37 83.34 206.57C83.5 206.77 83.7 206.95 83.91 207.1C84.12 207.25 84.35 207.38 84.59 207.47C84.84 207.57 85.09 207.63 85.35 207.66C85.49 207.61 85.62 207.55 85.75 207.5ZM88.83 210.04C88.91 210.26 89.02 210.48 89.16 210.68C89.29 210.88 89.45 211.06 89.63 211.22C89.81 211.38 90.01 211.51 90.23 211.62C90.43 211.73 90.65 211.8 90.88 211.85C91.1 211.89 91.33 211.89 91.56 211.87C91.79 211.84 92.01 211.77 92.22 211.68C92.43 211.58 92.62 211.45 92.79 211.3C94.61 209.73 96.41 208.16 98.18 206.54C98.41 206.33 98.6 206.07 98.74 205.79C98.87 205.5 98.94 205.19 98.95 204.87C98.96 204.56 98.9 204.25 98.79 203.95C98.67 203.66 98.49 203.39 98.27 203.17C98.06 202.95 97.82 202.77 97.54 202.64C97.27 202.51 96.97 202.44 96.67 202.42C96.37 202.41 96.06 202.45 95.78 202.55C95.49 202.65 95.23 202.8 95 203C93.21 204.55 91.43 206.1 89.7 207.72C89.6 207.84 89.5 207.97 89.41 208.1C89.31 208.22 89.22 208.36 89.14 208.49C89.06 208.63 88.98 208.76 88.9 208.9C88.83 209.04 88.76 209.19 88.69 209.33C88.71 209.57 88.76 209.81 88.83 210.04ZM77.71 200.42C77.79 200.65 77.91 200.86 78.05 201.06C78.19 201.26 78.35 201.44 78.53 201.6C78.71 201.76 78.91 201.9 79.13 202.01C79.34 202.11 79.56 202.18 79.78 202.22C80.01 202.25 80.24 202.26 80.47 202.22C80.69 202.19 80.92 202.12 81.12 202.02C81.33 201.93 81.52 201.8 81.69 201.64C82.92 200.58 84.13 199.5 85.35 198.43C85.91 198.03 86.28 197.42 86.36 196.73C86.45 196.05 86.23 195.36 85.78 194.84C85.33 194.33 84.68 194.02 83.99 194.01C83.3 194 82.64 194.29 82.17 194.79C80.94 195.86 79.69 196.9 78.53 198.04C78.43 198.17 78.33 198.3 78.24 198.43C78.15 198.57 78.06 198.71 77.98 198.85C77.89 198.99 77.81 199.13 77.74 199.28C77.66 199.42 77.59 199.57 77.53 199.72C77.56 199.96 77.62 200.2 77.71 200.42ZM96.04 213.26C96.11 213.49 96.21 213.7 96.33 213.89C96.46 214.09 96.61 214.27 96.78 214.43C96.95 214.59 97.14 214.72 97.35 214.83C97.55 214.95 97.76 215.03 97.99 215.08C98.21 215.13 98.44 215.14 98.67 215.12C98.9 215.1 99.12 215.04 99.33 214.95C99.54 214.86 99.74 214.73 99.91 214.58C101.07 213.58 102.21 212.58 103.31 211.58C103.73 211.15 103.97 210.57 103.98 209.97C103.99 209.37 103.77 208.79 103.37 208.34C102.96 207.9 102.41 207.62 101.81 207.57C101.21 207.52 100.61 207.7 100.14 208.07C99.01 209.07 97.88 209.99 96.83 211.07C96.74 211.19 96.65 211.3 96.56 211.42C96.48 211.55 96.4 211.67 96.32 211.8C96.24 211.92 96.17 212.05 96.1 212.18C96.03 212.31 95.97 212.44 95.91 212.58C95.92 212.81 95.97 213.04 96.04 213.26Z" />
	<path id="Layer" class="shp1" d="M15.09 18.92C15.83 19.66 91.37 18.32 118.09 19.04C169.7 20.39 209.25 42.66 231.51 90.12C250.64 130.92 246.4 170.94 220.08 207.58C196.08 240.96 163.29 257.82 121.67 257.11C92.87 256.64 64.04 256.79 35.24 257.18C26.24 257.3 22.42 254.95 22.62 245.03C23.2 214.18 22.51 183.29 23.16 152.44C23.26 147.57 26.51 141.27 30.35 138.21C52.08 120.96 74.57 104.68 96.5 87.68C102.97 82.68 107.89 82.5 114.5 87.62C137.17 105.18 160.28 122.18 185.01 140.74C173.86 146.74 165.01 151.88 155.75 156.03C153.52 157.03 149.21 155.29 146.75 153.54C135.91 145.75 125.2 137.73 114.82 129.31C108.33 124.06 103.07 124.31 96.6 129.56C86.29 138 74.79 145 64.77 153.79C63.7 154.79 62.72 155.88 61.84 157.05C60.96 158.21 60.18 159.46 59.52 160.76C58.86 162.07 58.31 163.43 57.89 164.83C57.47 166.23 57.17 167.67 57 169.12C55.94 183.45 56.86 197.91 56.55 212.3C56.38 220.42 59.22 224.3 67.83 224.19C88.75 223.89 109.68 224.52 130.59 223.93C166.23 222.93 201.59 190.17 207.77 155.06C216.77 103.41 179.35 53.25 120 52.84C89.82 52.62 45.15 52.47 15 52.99L15.09 18.92Z" />
	<path id="Layer" class="shp0" d="M331.4 194.27C329.3 194.3 327.2 194.26 325.1 194.13C323.01 194.01 320.92 193.8 318.84 193.52C316.76 193.24 314.69 192.88 312.63 192.44C310.58 192 308.54 191.48 306.53 190.89C304.86 190.4 303.22 189.82 301.62 189.15C300.01 188.48 298.44 187.73 296.92 186.89C295.4 186.05 293.92 185.12 292.5 184.12C291.08 183.12 289.71 182.04 288.41 180.89C287.17 179.76 286.01 178.55 284.92 177.27C283.83 176 282.82 174.65 281.89 173.25C280.96 171.86 280.12 170.4 279.38 168.9C278.63 167.4 277.97 165.85 277.41 164.27C276.77 162.42 276.21 160.54 275.73 158.64C275.26 156.74 274.87 154.82 274.56 152.89C274.25 150.95 274.03 149.01 273.9 147.05C273.76 145.1 273.71 143.14 273.75 141.18C273.75 130.29 275.75 120.87 279.75 112.92C280.68 111.02 281.74 109.19 282.93 107.45C284.12 105.7 285.43 104.04 286.86 102.49C288.29 100.93 289.83 99.48 291.47 98.15C293.1 96.82 294.84 95.6 296.65 94.52C303.92 90.17 312.5 88 322.39 88C333.53 88 342.53 90.29 349.39 94.86C351.11 96 352.73 97.28 354.24 98.68C355.76 100.08 357.15 101.59 358.42 103.22C359.69 104.84 360.83 106.56 361.83 108.37C362.82 110.18 363.67 112.06 364.36 114C367.42 122.2 368.7 131.68 368.21 142.44L368.02 148.08L287.84 148.08L287.84 132.68L347 132.68L347 131.18C347 122.51 344.93 115.97 340.8 111.56C336.67 107.15 330.47 104.92 322.21 104.89C321.04 104.88 319.87 104.94 318.71 105.07C317.55 105.2 316.4 105.4 315.26 105.67C314.12 105.94 313 106.27 311.9 106.68C310.8 107.08 309.73 107.55 308.69 108.08C304.56 110.21 301.27 113.81 298.84 118.88C296.41 123.95 295.19 130.8 295.18 139.44L295.18 141.88C295.18 150.77 296.77 157.75 299.96 162.82C300.73 164.06 301.6 165.23 302.57 166.32C303.53 167.41 304.59 168.42 305.72 169.34C306.85 170.26 308.06 171.08 309.33 171.79C310.6 172.51 311.93 173.12 313.3 173.61C314.85 174.16 316.43 174.65 318.03 175.06C319.63 175.47 321.24 175.81 322.87 176.08C324.5 176.35 326.14 176.54 327.78 176.66C329.43 176.78 331.08 176.83 332.73 176.8C334.1 176.82 335.47 176.8 336.83 176.74C338.2 176.67 339.56 176.56 340.92 176.41C342.28 176.26 343.64 176.07 344.98 175.83C346.33 175.6 347.67 175.32 349 175C349.94 174.78 350.87 174.54 351.79 174.26C352.71 173.99 353.63 173.68 354.53 173.35C355.43 173.01 356.32 172.65 357.2 172.26C358.08 171.87 358.95 171.45 359.8 171L361.49 171L361.49 188.84C360.5 189.27 359.51 189.67 358.5 190.05C357.49 190.43 356.47 190.78 355.44 191.1C354.42 191.42 353.38 191.71 352.34 191.98C351.3 192.24 350.25 192.48 349.19 192.69C347.73 192.98 346.26 193.22 344.78 193.43C343.3 193.64 341.82 193.81 340.34 193.94C338.85 194.08 337.36 194.17 335.87 194.22C334.38 194.28 332.89 194.29 331.4 194.27L331.4 194.27Z" />
	<path id="Layer" class="shp0" d="M430.73 194.83C415.71 194.83 404.38 192.2 396.73 186.94C389.08 181.68 385.27 173.48 385.28 162.35C385.28 155.09 387.09 149.09 390.72 144.35C394.35 139.61 399.48 136.04 406.12 133.65C407.99 133.02 409.89 132.47 411.8 132.01C413.72 131.54 415.66 131.16 417.61 130.86C419.56 130.56 421.52 130.35 423.49 130.22C425.45 130.09 427.43 130.04 429.4 130.08C430.76 130.06 432.11 130.07 433.47 130.13C434.82 130.18 436.17 130.28 437.52 130.41C438.87 130.54 440.22 130.72 441.55 130.93C442.89 131.14 444.23 131.39 445.55 131.68C449.93 132.74 453.81 133.77 457.19 134.78L457.19 149.61C456.26 149.32 455.33 149.04 454.39 148.78C453.45 148.52 452.51 148.27 451.56 148.05C450.61 147.82 449.66 147.61 448.7 147.42C447.75 147.22 446.79 147.05 445.83 146.89C444.77 146.69 443.71 146.52 442.65 146.36C441.58 146.21 440.51 146.09 439.44 145.98C438.37 145.88 437.3 145.8 436.23 145.74C435.15 145.68 434.08 145.65 433 145.64C423.74 145.64 416.82 146.86 412.25 149.3C407.68 151.74 405.39 156.09 405.4 162.35C405.4 168.23 407.59 172.45 411.97 175.02C416.35 177.59 422.68 178.87 430.97 178.87C432.12 178.87 433.27 178.85 434.41 178.8C435.56 178.75 436.71 178.68 437.85 178.57C439 178.47 440.14 178.34 441.28 178.19C442.42 178.04 443.55 177.86 444.68 177.65C445.72 177.46 446.76 177.24 447.79 177C448.82 176.75 449.84 176.47 450.86 176.17C451.87 175.86 452.88 175.53 453.87 175.17C454.87 174.81 455.86 174.42 456.83 174L453.26 180.19C453.16 179.87 453.07 179.54 452.98 179.22C452.89 178.89 452.81 178.56 452.73 178.23C452.65 177.91 452.58 177.58 452.51 177.24C452.44 176.91 452.38 176.58 452.32 176.25C452.07 174.87 451.85 173.47 451.66 172.03C451.47 170.59 451.35 169.03 451.29 167.24C451.23 165.45 451.19 163.48 451.19 161.24L451.19 130.8C451.19 123.54 450.16 118.06 448.1 114.37C447.61 113.48 447.04 112.64 446.39 111.86C445.73 111.09 445 110.38 444.2 109.75C443.41 109.13 442.55 108.58 441.64 108.13C440.73 107.67 439.78 107.31 438.8 107.05C437.53 106.72 436.25 106.44 434.96 106.21C433.67 105.97 432.37 105.77 431.07 105.63C429.77 105.48 428.46 105.37 427.15 105.31C425.84 105.25 424.53 105.24 423.22 105.27C421.96 105.27 420.7 105.31 419.44 105.38C418.18 105.46 416.92 105.57 415.67 105.72C414.41 105.87 413.17 106.05 411.92 106.28C410.68 106.5 409.45 106.76 408.22 107.05C407.19 107.27 406.17 107.52 405.15 107.8C404.14 108.07 403.13 108.37 402.13 108.69C401.13 109.01 400.13 109.36 399.15 109.72C398.16 110.09 397.19 110.48 396.22 110.9L394.53 110.9L394.53 93.25C395.75 92.79 396.98 92.36 398.22 91.96C399.47 91.57 400.72 91.21 401.98 90.88C403.24 90.55 404.51 90.25 405.79 89.99C407.07 89.73 408.35 89.5 409.64 89.31C410.98 89.1 412.32 88.91 413.67 88.75C415.02 88.58 416.37 88.45 417.72 88.34C419.07 88.23 420.43 88.15 421.78 88.09C423.14 88.03 424.49 88 425.85 88C427.38 87.99 428.92 88.02 430.45 88.08C431.98 88.15 433.51 88.25 435.04 88.39C436.57 88.53 438.09 88.71 439.61 88.93C441.13 89.14 442.64 89.4 444.15 89.69C445.47 89.94 446.77 90.27 448.05 90.66C449.33 91.05 450.59 91.52 451.82 92.05C453.05 92.58 454.25 93.17 455.42 93.83C456.58 94.49 457.71 95.22 458.8 96C459.89 96.83 460.93 97.74 461.89 98.71C462.86 99.68 463.76 100.72 464.58 101.82C465.41 102.92 466.16 104.07 466.82 105.27C467.49 106.47 468.07 107.72 468.56 109C470.85 114.53 472 121.79 472 130.8L472 155C472 157.51 472 160.76 472.1 164.77C472.2 168.78 472.32 172.69 472.57 176.5C472.61 177.26 472.66 178.03 472.73 178.79C472.79 179.55 472.87 180.32 472.96 181.08C473.06 181.84 473.16 182.59 473.29 183.35C473.41 184.11 473.54 184.86 473.69 185.61L473.13 187.11C472.01 187.51 470.88 187.89 469.75 188.26C468.62 188.62 467.48 188.97 466.34 189.31C465.19 189.64 464.05 189.96 462.9 190.26C461.75 190.56 460.59 190.84 459.43 191.11C458.19 191.4 456.95 191.68 455.71 191.94C454.46 192.2 453.22 192.45 451.97 192.67C450.72 192.9 449.46 193.11 448.21 193.3C446.95 193.5 445.69 193.67 444.43 193.83C443.29 193.98 442.16 194.12 441.02 194.24C439.88 194.36 438.74 194.46 437.6 194.54C436.45 194.62 435.31 194.69 434.16 194.74C433.02 194.79 431.88 194.82 430.73 194.83Z" />
	<path id="Layer" class="shp0" d="M504.7 192.58L504.7 82C504.7 79.49 504.7 76.27 504.61 72.32C504.52 68.37 504.42 64.47 504.23 60.59C504.21 59.82 504.17 59.05 504.12 58.28C504.07 57.51 504 56.74 503.92 55.97C503.84 55.2 503.74 54.44 503.62 53.67C503.51 52.91 503.38 52.15 503.23 51.39L503.61 49.89L525.76 49.89L525.76 192.59L504.7 192.58Z" />
	<path id="Layer" class="shp0" d="M560.09 192.58L560.09 128.17C560.09 125.67 560.06 122.45 560 118.5C559.94 114.55 559.81 110.64 559.62 106.77C559.6 106 559.56 105.23 559.51 104.46C559.46 103.69 559.39 102.92 559.31 102.15C559.23 101.38 559.13 100.62 559.01 99.85C558.9 99.09 558.77 98.33 558.62 97.57L559 96.07C560.03 95.68 561.07 95.3 562.12 94.94C563.17 94.57 564.22 94.23 565.27 93.9C566.33 93.57 567.39 93.26 568.46 92.96C569.52 92.66 570.6 92.38 571.67 92.12C572.94 91.8 574.21 91.5 575.49 91.21C576.77 90.93 578.05 90.66 579.33 90.41C580.61 90.16 581.9 89.93 583.19 89.71C584.48 89.5 585.77 89.3 587.07 89.12C588.29 88.94 589.51 88.78 590.74 88.64C591.96 88.51 593.19 88.39 594.42 88.3C595.65 88.2 596.88 88.13 598.11 88.08C599.34 88.03 600.58 88 601.81 87.99C603.18 87.99 604.56 88.03 605.93 88.11C607.3 88.19 608.67 88.32 610.04 88.49C611.4 88.65 612.76 88.86 614.11 89.11C615.46 89.36 616.81 89.66 618.14 89.99C619.42 90.3 620.68 90.69 621.92 91.14C623.16 91.59 624.38 92.11 625.56 92.69C626.74 93.27 627.89 93.92 629.01 94.63C630.12 95.34 631.19 96.1 632.22 96.93C633.31 97.84 634.34 98.82 635.31 99.86C636.28 100.91 637.18 102.01 638.01 103.16C638.85 104.32 639.6 105.52 640.28 106.77C640.96 108.02 641.56 109.31 642.08 110.64C644.52 116.46 645.74 123.88 645.74 132.89L645.74 192.6L624.74 192.6L624.74 134.2C624.74 126.57 623.68 120.68 621.55 116.55C621.1 115.6 620.56 114.69 619.94 113.84C619.33 112.99 618.63 112.19 617.87 111.46C617.11 110.73 616.29 110.08 615.41 109.5C614.53 108.92 613.6 108.42 612.63 108.01C611.6 107.61 610.55 107.25 609.48 106.95C608.41 106.65 607.33 106.4 606.24 106.2C605.15 106.01 604.05 105.86 602.95 105.77C601.85 105.68 600.74 105.64 599.63 105.66C598.61 105.67 597.58 105.7 596.56 105.76C595.54 105.81 594.51 105.9 593.5 106.01C592.48 106.12 591.46 106.25 590.45 106.42C589.44 106.58 588.43 106.77 587.43 106.98C586.48 107.17 585.52 107.37 584.58 107.59C583.63 107.81 582.69 108.05 581.75 108.3C580.81 108.55 579.87 108.81 578.94 109.09C578.01 109.37 577.08 109.67 576.16 109.98L579.54 104.16C579.72 104.74 579.88 105.32 580.02 105.91C580.17 106.5 580.29 107.1 580.4 107.69C580.51 108.29 580.61 108.89 580.68 109.49C580.76 110.09 580.82 110.7 580.86 111.3C581.11 114.18 581.23 117.3 581.23 120.68L581.23 192.6L560.09 192.58ZM687.4 192.58L687.4 134.18C687.4 126.55 686.4 120.66 684.4 116.53C683.96 115.56 683.43 114.64 682.82 113.78C682.2 112.91 681.5 112.11 680.73 111.38C679.96 110.65 679.13 110 678.23 109.43C677.34 108.86 676.39 108.38 675.4 107.99C674.23 107.57 673.04 107.21 671.83 106.9C670.63 106.59 669.41 106.34 668.18 106.14C666.96 105.94 665.72 105.8 664.48 105.72C663.24 105.63 661.99 105.61 660.75 105.64C659.88 105.64 659.02 105.67 658.15 105.72C657.29 105.77 656.42 105.84 655.56 105.93C654.7 106.03 653.84 106.14 652.98 106.28C652.13 106.42 651.28 106.59 650.43 106.77C649.49 106.98 648.55 107.2 647.61 107.45C646.68 107.7 645.75 107.96 644.82 108.24C643.9 108.52 642.98 108.82 642.07 109.14C641.16 109.46 640.25 109.8 639.35 110.15L627.35 96.07C628.85 95.48 630.35 94.91 631.87 94.37C633.39 93.83 634.91 93.32 636.45 92.83C637.98 92.35 639.52 91.89 641.08 91.46C642.63 91.03 644.18 90.63 645.75 90.25C648.63 89.53 651.55 88.98 654.5 88.61C657.44 88.23 660.41 88.03 663.38 87.99C666.35 87.96 669.32 88.1 672.27 88.42C675.22 88.73 678.15 89.22 681.05 89.87C682.35 90.16 683.63 90.53 684.89 90.96C686.14 91.4 687.37 91.91 688.57 92.48C689.77 93.06 690.94 93.7 692.07 94.41C693.19 95.12 694.28 95.89 695.32 96.72C696.41 97.63 697.43 98.6 698.39 99.64C699.35 100.69 700.24 101.79 701.05 102.94C701.87 104.1 702.61 105.31 703.26 106.56C703.92 107.81 704.5 109.1 704.99 110.43C707.31 116.25 708.47 123.73 708.46 132.87L708.46 192.58L687.4 192.58Z" />
	<path id="Layer" class="shp0" d="M779.4 194.83C764.38 194.83 753.05 192.2 745.4 186.94C737.75 181.68 733.95 173.48 734 162.35C734 155.09 735.81 149.09 739.44 144.35C743.07 139.61 748.2 136.04 754.84 133.65C756.71 133.02 758.61 132.47 760.52 132.01C762.44 131.54 764.38 131.16 766.33 130.86C768.28 130.56 770.24 130.35 772.21 130.22C774.17 130.09 776.15 130.04 778.12 130.08C779.48 130.06 780.83 130.07 782.19 130.13C783.54 130.18 784.89 130.28 786.24 130.41C787.59 130.54 788.94 130.72 790.27 130.93C791.61 131.14 792.95 131.39 794.27 131.68C798.65 132.74 802.53 133.77 805.91 134.78L805.91 149.61C804.98 149.32 804.05 149.04 803.11 148.78C802.17 148.52 801.23 148.27 800.28 148.05C799.33 147.82 798.38 147.61 797.42 147.42C796.47 147.22 795.51 147.05 794.55 146.89C793.49 146.69 792.43 146.52 791.36 146.37C790.29 146.22 789.22 146.1 788.15 145.99C787.07 145.89 786 145.82 784.92 145.76C783.85 145.71 782.77 145.68 781.69 145.67C772.42 145.67 765.51 146.89 760.94 149.33C756.37 151.77 754.09 156.12 754.09 162.38C754.09 168.26 756.28 172.48 760.66 175.05C765.04 177.62 771.37 178.9 779.66 178.9C780.81 178.9 781.96 178.88 783.1 178.83C784.25 178.78 785.4 178.71 786.54 178.6C787.69 178.5 788.83 178.37 789.97 178.22C791.11 178.07 792.24 177.89 793.37 177.68C794.42 177.49 795.46 177.27 796.49 177.03C797.53 176.78 798.56 176.5 799.57 176.2C800.59 175.89 801.6 175.56 802.6 175.19C803.6 174.83 804.59 174.44 805.57 174.02L802.01 180.21C801.91 179.89 801.82 179.56 801.73 179.24C801.64 178.91 801.56 178.58 801.48 178.25C801.4 177.93 801.33 177.6 801.26 177.26C801.19 176.93 801.13 176.6 801.07 176.27C800.82 174.89 800.6 173.49 800.41 172.05C800.22 170.61 800.1 169.05 800.04 167.26C799.98 165.47 799.94 163.5 799.94 161.26L799.94 130.8C799.94 123.54 798.91 118.06 796.84 114.37C796.36 113.48 795.78 112.64 795.13 111.86C794.47 111.09 793.74 110.38 792.95 109.76C792.15 109.13 791.29 108.58 790.39 108.13C789.48 107.67 788.53 107.31 787.55 107.05C786.28 106.72 785 106.44 783.71 106.21C782.42 105.97 781.12 105.77 779.82 105.63C778.52 105.48 777.21 105.37 775.9 105.31C774.59 105.25 773.28 105.24 771.97 105.27C770.71 105.27 769.45 105.31 768.19 105.39C766.93 105.46 765.67 105.57 764.42 105.72C763.17 105.87 761.92 106.06 760.67 106.28C759.43 106.5 758.2 106.76 756.97 107.05C755.94 107.27 754.92 107.52 753.9 107.8C752.89 108.07 751.88 108.37 750.88 108.69C749.88 109.01 748.88 109.36 747.9 109.72C746.91 110.09 745.94 110.48 744.97 110.9L743.28 110.9L743.28 93.25C744.5 92.79 745.73 92.36 746.97 91.96C748.22 91.57 749.47 91.2 750.73 90.88C751.99 90.55 753.26 90.25 754.54 89.99C755.82 89.73 757.1 89.5 758.39 89.31C759.73 89.09 761.08 88.9 762.43 88.74C763.78 88.58 765.13 88.44 766.48 88.33C767.84 88.22 769.2 88.14 770.55 88.08C771.91 88.02 773.27 87.99 774.63 87.99C776.16 87.98 777.7 88.01 779.23 88.07C780.77 88.14 782.3 88.24 783.83 88.38C785.36 88.52 786.88 88.7 788.4 88.92C789.92 89.13 791.43 89.39 792.94 89.68C794.26 89.93 795.56 90.25 796.84 90.64C798.12 91.04 799.38 91.5 800.61 92.03C801.84 92.55 803.04 93.15 804.21 93.81C805.37 94.47 806.5 95.19 807.59 95.97C808.68 96.8 809.72 97.71 810.68 98.68C811.65 99.65 812.55 100.69 813.37 101.79C814.2 102.89 814.95 104.04 815.61 105.24C816.28 106.44 816.86 107.69 817.35 108.97C819.67 114.54 820.83 121.83 820.82 130.84L820.82 155C820.82 157.51 820.82 160.76 820.92 164.77C821.02 168.78 821.13 172.69 821.39 176.5C821.43 177.26 821.48 178.03 821.55 178.79C821.61 179.55 821.69 180.32 821.78 181.08C821.88 181.84 821.98 182.59 822.11 183.35C822.23 184.11 822.36 184.86 822.51 185.61L821.95 187.11C820.83 187.51 819.7 187.89 818.57 188.26C817.43 188.62 816.3 188.97 815.15 189.31C814.01 189.64 812.86 189.96 811.71 190.26C810.56 190.56 809.4 190.84 808.24 191.11C807 191.4 805.76 191.68 804.52 191.94C803.28 192.2 802.03 192.45 800.78 192.67C799.53 192.9 798.27 193.11 797.02 193.3C795.76 193.5 794.5 193.67 793.24 193.83C792.09 193.98 790.94 194.12 789.79 194.24C788.64 194.36 787.49 194.46 786.34 194.54C785.18 194.63 784.03 194.69 782.87 194.74C781.71 194.79 780.56 194.82 779.4 194.83L779.4 194.83Z" />
	<path id="Layer" fill-rule="evenodd" class="shp0" d="M853.37 236.14L853.37 127.42C853.37 125.17 853.34 122.11 853.28 118.22C853.21 114.34 853.09 110.5 852.9 106.68C852.88 105.92 852.84 105.15 852.79 104.39C852.74 103.63 852.67 102.86 852.59 102.1C852.5 101.34 852.4 100.59 852.29 99.83C852.18 99.07 852.05 98.32 851.9 97.57L852.28 96.07C853.84 95.45 855.41 94.86 856.99 94.31C858.57 93.75 860.17 93.23 861.77 92.75C863.38 92.26 865 91.81 866.62 91.39C868.25 90.98 869.88 90.6 871.52 90.25C873.22 89.88 874.93 89.55 876.65 89.27C878.37 88.99 880.1 88.75 881.83 88.56C883.57 88.37 885.3 88.23 887.04 88.14C888.78 88.04 890.53 87.99 892.27 87.99C894.08 87.97 895.88 88.03 897.69 88.16C899.49 88.29 901.28 88.5 903.07 88.78C904.85 89.06 906.62 89.42 908.38 89.85C910.13 90.29 911.87 90.79 913.58 91.37C915.13 91.9 916.65 92.51 918.14 93.2C919.62 93.89 921.07 94.66 922.47 95.5C923.87 96.35 925.23 97.27 926.54 98.25C927.84 99.24 929.1 100.3 930.29 101.42C931.49 102.58 932.62 103.8 933.68 105.08C934.75 106.37 935.74 107.71 936.65 109.1C937.56 110.49 938.4 111.94 939.15 113.42C939.9 114.91 940.57 116.44 941.15 118C941.82 119.84 942.41 121.72 942.91 123.61C943.41 125.51 943.82 127.43 944.14 129.37C944.46 131.3 944.7 133.25 944.84 135.21C944.98 137.17 945.04 139.13 945 141.09C945.02 142.96 944.96 144.82 944.83 146.69C944.69 148.55 944.47 150.4 944.17 152.24C943.87 154.09 943.49 155.92 943.03 157.73C942.58 159.54 942.04 161.33 941.43 163.09C940.88 164.68 940.24 166.23 939.52 167.75C938.8 169.26 938 170.74 937.11 172.17C936.23 173.6 935.27 174.98 934.23 176.3C933.2 177.62 932.09 178.89 930.92 180.09C929.72 181.29 928.46 182.42 927.13 183.48C925.81 184.55 924.44 185.54 923.01 186.45C921.58 187.37 920.1 188.2 918.59 188.96C917.07 189.72 915.51 190.39 913.92 190.98C912.08 191.65 910.22 192.23 908.33 192.73C906.44 193.23 904.52 193.64 902.6 193.96C900.67 194.28 898.73 194.52 896.78 194.66C894.83 194.81 892.87 194.86 890.92 194.83C890.28 194.83 889.63 194.82 888.99 194.79C888.35 194.77 887.7 194.73 887.06 194.68C886.42 194.64 885.78 194.58 885.14 194.51C884.5 194.44 883.86 194.36 883.22 194.27C880.59 193.89 878.18 193.48 875.99 193.05C875.41 192.93 874.87 192.83 874.37 192.72L874.37 236.18L853.37 236.14ZM874.37 192.72L874.37 183.98L874.35 184.03L874.37 184.14L874.37 175.57C874.35 175.56 874.32 175.56 874.3 175.55C874.07 175.5 873.83 175.45 873.59 175.41C873.35 175.37 873.11 175.34 872.87 175.31L874.35 184.03L870.99 192.05C871.84 192.21 872.96 192.44 874.37 192.72ZM875 175.74C875.23 175.81 875.46 175.89 875.69 175.97C876.15 176.11 876.61 176.23 877.08 176.35C877.55 176.47 878.01 176.58 878.48 176.68C878.95 176.78 879.42 176.88 879.9 176.96C880.37 177.05 880.84 177.12 881.32 177.19C882.02 177.29 882.72 177.38 883.42 177.45C884.13 177.53 884.83 177.59 885.53 177.63C886.24 177.68 886.94 177.71 887.65 177.73C888.36 177.75 889.06 177.76 889.77 177.75C901.16 177.75 909.64 174.56 915.21 168.18C920.78 161.8 923.56 152.8 923.57 141.18C923.57 129.42 920.75 120.5 915.12 114.42C909.49 108.34 901.35 105.31 890.71 105.32C889.71 105.32 888.72 105.34 887.73 105.4C886.73 105.46 885.74 105.54 884.75 105.66C883.76 105.78 882.78 105.93 881.8 106.1C880.82 106.28 879.85 106.49 878.88 106.73C878.11 106.9 877.35 107.09 876.59 107.32C875.84 107.54 875.09 107.79 874.35 108.06C874.17 108.13 873.98 108.2 873.8 108.27C873.86 108.65 873.91 109.03 873.95 109.42C874.01 110.01 874.06 110.6 874.09 111.19C874.28 113.94 874.37 116.95 874.37 120.19L874.37 175.57C874.58 175.62 874.79 175.68 875 175.74ZM873.8 108.27C873.77 108.07 873.73 107.86 873.7 107.65C873.59 107.07 873.47 106.49 873.34 105.91C873.2 105.33 873.04 104.76 872.87 104.19L870.05 110.01C870.74 109.64 871.45 109.29 872.17 108.96C872.7 108.72 873.25 108.49 873.8 108.27Z" />
</svg>