<svg xmlns="http://www.w3.org/2000/svg" xmlns:xlink="http://www.w3.org/1999/xlink" width="18" height="18" viewBox="0 0 18 18">
  <defs>
    <clipPath id="clip-path">
      <rect id="Icon_Container" data-name="Icon Container" width="18" height="18" transform="translate(-0.4 0.5)" fill="#d3d3d3" stroke="#d3d3d3" stroke-width="1"/>
    </clipPath>
  </defs>
  <g id="bath-icon" transform="translate(0.4 -0.5)" clip-path="url(#clip-path)">
    <path id="bathroom" d="M15.306,9.435H3.151v-5.7a1.622,1.622,0,0,1,.479-1.155l.013-.013A1.636,1.636,0,0,1,5.5,2.248a2.5,2.5,0,0,0,.373,3.059l.347.347-.638.638.716.716.638-.638,3.535-3.535.638-.638-.716-.716-.638.638L9.4,1.771A2.5,2.5,0,0,0,6.21,1.487a2.647,2.647,0,0,0-3.284.366l-.013.013a2.629,2.629,0,0,0-.775,1.871v5.7H1.125v1.013H2.138v.972a.758.758,0,0,0,.039.24l.942,2.827a.759.759,0,0,0,.72.52h.408l-.369,1.266H4.934L5.3,15.006H11.89l.38,1.266h1.057l-.38-1.266H13.6a.759.759,0,0,0,.721-.52l.942-2.827a.759.759,0,0,0,.039-.24v-.971h1.013V9.435ZM6.586,2.488a1.488,1.488,0,0,1,2.1,0l.347.347-2.1,2.1L6.586,4.59A1.489,1.489,0,0,1,6.586,2.488Zm7.707,8.891-.872,2.615h-9.4l-.872-2.615v-.931H14.293Z" transform="translate(0.315 0.399)" fill="#d3d3d3"/>
  </g>
</svg>
