<svg xmlns="http://www.w3.org/2000/svg" xmlns:xlink="http://www.w3.org/1999/xlink" width="18" height="18" viewBox="0 0 18 18">
  <defs>
    <clipPath id="clip-path">
      <rect id="Icon_Container" data-name="Icon Container" width="18" height="18" transform="translate(0.4 0.5)" fill="#d3d3d3" stroke="#d3d3d3" stroke-width="1"/>
    </clipPath>
  </defs>
  <g id="space-icon" transform="translate(-0.4 -0.5)" clip-path="url(#clip-path)">
    <g id="center-focus" transform="translate(1.44 1.44)">
      <path id="Path_18" data-name="Path 18" d="M2.583,28.165H6.228v-.972H2.583a.486.486,0,0,1-.486-.486V23.063H1.125v3.645a1.46,1.46,0,0,0,1.458,1.458Z" transform="translate(-1.125 -13.587)" fill="#d3d3d3"/>
      <path id="Path_19" data-name="Path 19" d="M2.1,2.583A.486.486,0,0,1,2.583,2.1H6.228V1.125H2.583A1.46,1.46,0,0,0,1.125,2.583V6.228H2.1Z" transform="translate(-1.125 -1.125)" fill="#d3d3d3"/>
      <path id="Path_20" data-name="Path 20" d="M26.707,1.125H23.063V2.1h3.645a.486.486,0,0,1,.486.486V6.228h.972V2.583a1.46,1.46,0,0,0-1.458-1.458Z" transform="translate(-13.587 -1.125)" fill="#d3d3d3"/>
      <path id="Path_21" data-name="Path 21" d="M27.193,26.707a.486.486,0,0,1-.486.486H23.063v.972h3.645a1.46,1.46,0,0,0,1.458-1.458V23.063h-.972Z" transform="translate(-13.587 -13.587)" fill="#d3d3d3"/>
    </g>
  </g>
</svg>
